<svg xmlns="http://www.w3.org/2000/svg" height="248" width="248" viewBox="0 0 250 250">
 <g transform="translate(-263.45 -624.97)">
  <g transform="matrix(1.9428 0 0 1.9428 -364.38 -708.92)">
   <g fill-rule="evenodd">
    <path d="m387.42 687.15c-35.227 0-63.801 28.579-63.801 63.813 0 35.259 28.573 63.838 63.801 63.838 35.277 0 63.851-28.579 63.851-63.838 0-35.234-28.573-63.813-63.851-63.813" fill="#cfc493"/>
    <path d="m387.42 811.41c33.394 0 60.436-27.072 60.436-60.448 0-33.351-27.042-60.423-60.436-60.423-33.344 0-60.386 27.072-60.386 60.423 0 33.376 27.042 60.448 60.386 60.448" fill="#fff"/>
    <path d="m387.35 792.47c22.974 0 41.58-18.634 41.58-41.613 0-22.928-18.605-41.563-41.58-41.563-22.949 0-41.58 18.634-41.58 41.563 0 22.979 18.63 41.613 41.58 41.613" fill="#cfc493"/>
    <path d="m63.318 47.057-3.457 8.0742c0.1288 0.09047 0.21572 0.16832 0.19141 0.21289-0.01999 0.05599-0.13649 0.04794-0.28906 0.01367l-4.23 9.88-2.283-4.068v0.15039l5.1211 17.43v0.52734c-0.35151-0.12557-0.47632 0.7785-0.80274 0.17578-2.2598-5.7761-4.3201-11.602-6.7305-17.303 0.45196 5.1985 0.88008 10.395 1.332 15.594 0.10044 1.1552 0.07528 2.2365-0.17578 3.3164-0.20086 0.1758-0.45315-0.0764-0.62891-0.27734-1.0546-6.2783-2.1078-12.531-3.1875-18.834l-1.6074 20.693-0.35156 0.62695c-0.62771 0.15068-0.603-0.60266-0.9043-0.87891l0.12695-21.496-0.55273 1.6074c-1.4814 4.4451-2.7128 9.0393-4.2695 13.484l1.959 3.7422c-0.3013 0.55249-0.92947 0.87972-1.4316 1.1309 3.7663 6.2281 10.395 10.296 16.723 12.18-0.40174-0.65295-1.0051-1.1559-1.6328-1.6582 1.5065-0.90408 2.6614 0.78012 3.9922 1.0312 1.4061 0.67806 2.2362-0.67966 3.2656-1.0312 0.60261-0.40181 1.3795-0.35013 1.957-0.75195-0.40173-0.70317 0.42694-1.13 0.70312-1.582l0.27734 0.25c0.22598 0.45204 0.72735 0.97988 0.27539 1.457 1.3056 0.50227 2.7125 0.72735 3.8926 1.5059 0.22598-0.80363 0.22638-1.7815 0.9043-2.334 0.70304-0.35159 1.6558-0.4275 2.3086 0.125 0.6026 0.55249 0.82866 1.4305 0.70312 2.209 2.0087-0.62783 5.0228-1.9578 6.7051-3.0879 0 0 4.9451-2.914 7.5312-7.334l-1.2051-1.7578s1.205-1.2046 2.5859-4.168c0 0 1.6585-3.6168 2.0352-4.998 0.37663-1.3812 1.4816-0.82849 1.7578 0.37695s1.1035 4.5195 1.1035 4.5195 2.5105-1.7572 3.6152-2.5859c1.1048-0.82875 3.2399-2.3096 2.6875-0.27539-0.25108 0.87897-1.4814 4.9968-2.6113 7.3574l1.707 0.95508c1.3307-2.7374 4.043-16.098 4.043-16.098l-41.152-18.106zm-3.5547 8.3008 0.09766-0.22656c-0.66942-0.47019-3.0164-1.4156-3.248-1.3945 0.06333 0.21114 2.345 1.4402 3.1504 1.6211zm3.0273-8.2246c-1.155 0.22602-3.114 0.57755-4.3945 0.87891l4.0176 0.22461c0.5775-0.50226 0.37695-1.1035 0.37695-1.1035zm-4.8965 2.9375c0.17576 0.22602 2.6357 1.156 3.2383 1.3066l0.45313-1.1055-3.6914-0.20117zm-0.48438 2.0684c-0.16713-0.0071-0.19933 0.0784 0.0078 0.19141l2.6855 1.4316 0.37695-1.1797c-0.3013-0.02511-2.6373-0.32704-2.8633-0.40234-0.0816-0.02511-0.15132-0.03866-0.20703-0.04102zm-2.0195 3.6504c-0.07165 0.000932-0.11056 0.01897-0.10742 0.05664l0.02539 0.02539 2.7363 2.7871 0.52734-1.5566c-0.57122-0.50541-2.6801-1.319-3.1816-1.3125zm-1.5391 2.3672c0 1.1301 1.682 3.013 2.4102 4.3691 0.27619-0.40181 0.77988-0.90314 0.83008-1.5059-0.62771-0.5776-2.9389-2.7377-3.2402-2.8633z" transform="translate(322.45 685.97)" fill="#006747"/>
    <path d="m45.953 39.631c-0.48883-0.01957-0.51519 0.86082-0.88867 1.1465-0.50217-0.22602-0.92919-0.77763-1.4062-0.62695-0.12554 0.3767-0.12587 0.80271-0.37695 1.1543-0.60261 0-1.0793-0.52652-1.707-0.27539-0.0251 0.52738 0.17602 1.1294-0.15039 1.5312-0.45195-0.05026-0.92945-0.35102-1.2559-0.125-0.07532 0.47715 0.10048 1.08 0.17578 1.6074-0.42684 0.35163-1.2054 0.000804-1.582 0.42773l0.70312 1.1797c-0.45196 0.3767-1.079 0.35154-1.5059 0.70312l1.0547 1.0801-1.0547 0.97852 1.2539 1.0547-0.82812 0.98047c-0.47706 0.87897 0.85413 0.55243 1.2559 0.87891-0.0251 0.60272-0.70308 1.0044-0.35156 1.582h1.1289c0.77836 0.35158 0.07675 1.0803 0.12695 1.6328 0.57749 0.47715 1.105-0.22712 1.7578-0.10156l0.07422 1.5078h0.07617c0.42684 0.22602 0.62811-0.30244 0.9043-0.45312 0.35152 0.27625 0.42524 0.62889 0.55078 0.98047 0.17576 0.50227 0.77962-0.30216 1.1562-0.60352 0.50216 0.22602 0.57761 0.77955 0.87891 1.1562 0.65282-0.12557 0.62618-0.93022 1.0781-1.332l1.332 0.95508c0.42684-0.22602 0.10054-1.3318 0.87891-0.95508 0.3013 0.10045 0.5525 0.55331 0.87891 0.25195-0.02511-0.47715 0.04942-0.87916 0.27539-1.2559 0.35152 0.22602 0.80445 0.30048 1.1309 0.62695l0.19922-1.8574 1.0547 0.20117c0.75326-0.45204-0.65282-1.231 0-1.6328 0.37663 0.02515 0.77963 0.32563 1.1562 0.09961-0.02511-0.5776-0.57758-0.97848-0.70312-1.5059l1.3301-0.45312c0.32641-0.70317-0.72826-0.62664-0.87891-1.1289 0.32641-0.20091 0.70345-0.37722 1.0801-0.57812 0.07533-0.62783-0.77878-0.4771-1.0801-0.87891-0.22598-0.62784 0.55332-0.4771 0.7793-0.87891 0.55238-0.77852-0.7531-0.55355-1.0293-0.98047 0.02511-0.42693 0.75332-0.5022 0.70312-1.0547-0.57749-0.22605-1.0059 0.10131-1.5332-0.27539 0.07532-0.47715 0.55361-0.77871 0.62891-1.2559-0.32641-0.10045-1.081-0.10045-1.5078 0-0.27622-0.32647 0.07617-0.92909 0.07617-1.4062-0.52728-0.17579-1.055 0.37696-1.6074 0.20117v-1.1562c-0.42685-0.95431-1.0296 0.22685-1.582 0.25195-0.47706-0.25113-0.14989-0.80356-0.62695-1.0547-0.45195-0.22602-0.77768 0.62782-1.1543 0.70312l-0.629-0.98c-0.09102-0.04395-0.1704-0.06556-0.24023-0.06836zm33.359 0.545c-13.333 0-24.131 10.823-24.131 24.133 0 13.36 10.798 24.186 24.131 24.186 13.358 0 24.18-10.825 24.18-24.186 0-13.31-10.822-24.133-24.18-24.133z" transform="translate(322.45 685.97)" fill="#fff"/>
    <path d="m46.174 42.584c-1.3712 0.05768-2.7611 0.65534-3.7969 1.6348-1.4312 1.6324-2.1092 4.0679-1.0547 6.1523 0.85369 1.4064 2.2859 2.8878 3.918 3.1641 1.9585 0.3767 3.616-0.4257 5.0723-1.6562 1.7325-1.4064 1.883-3.9181 1.2051-5.877-0.72814-1.6324-2.2095-3.0148-3.9922-3.291-0.4394-0.10673-0.89451-0.14618-1.3516-0.12695zm10.49 39.807c-0.9039 2.21-2.3095 3.0138-2.7363 4.7969-0.17576 1.331 0.20129 2.5122 1.0801 3.4414 0.32641 0.45204 0.77768 0.35102 1.1543 0.125-0.70303-1.1552-1.231-2.3358-1.2812-3.7422 0.05022-0.47714 0.15182-0.52647 0.45312-0.45117 0.2762 1.5821 0.62619 2.8127 1.2539 4.0684 0.87879-0.45204 1.1817 0.32482 1.709-0.15234 2.5611-2.888-1.4567-5.0469-1.4316-8.0605l-0.20117-0.02539z" transform="translate(322.45 685.97)" fill="#cfc493"/>
    <path d="m78.482 40.227c-0.90391 0-1.1035 1.1035-1.2793 1.2793-0.20087 0.20091 0.07487 0.47741 1.0039 0.37695 0.92901-0.0753 0.10109-0.82898 0.75391-0.72852 0.65282 0.0753 1.1039-0.27538 1.6562 0.07617 0.55239 0.3767 0.93006-0.72938 1.6582-0.45312 0.75325 0.27624 1.5817 0.27758 1.0293 0.83008-0.55239 0.55249 0.09998 0.75195 0.82812 0.75195s1.3049 1.1063 0.45117 1.0059c-0.82858-0.10045-0.82745 0.75391 0.10156 0.75391s1.9336-0.20117 1.9336-0.20117l0.375 1.1035s1.0296-1.105 1.582 0c0.55238 1.1301-0.09929 1.6838 0.27734 2.4121 0.37663 0.7534 0.92935 1.7581 0.55273 1.959-0.37663 0.17579-1.207-0.37695-1.207-0.37695s0.65316 0.55296 0.55273 1.2812c-0.0753 0.7534 0.37695 1.2051 0.37695 1.2051s0.65349-0.45313 0.92969-0.27734c0.27619 0.20091-0.37693 0.27759-0.20117 0.83008 0.20087 0.57761 0.20007 1.13 0.27539 1.4062 0.10043 0.27625-0.72656 0.92773-0.72656 0.92773l-0.55273 0.35156v-0.92773h-0.92969l0.55273 1.1289-0.10156 1.1055s-0.07369 0.27647-0.55078 0.72852c-0.45195 0.47715-0.55308 0.75306-1.1055 1.0293-0.55238 0.27625-0.92969 0.72852-0.92969 0.72852s0.82926 0.10069 0.92969 0.55274c0.10044 0.47716 0.47673 1.1808-0.37695 1.457-0.82858 0.27625-1.1797 0.09961-1.1797 0.09961s0.1761 1.2053 0.55274 1.582c0.35151 0.35159 1.8324 0.07506 2.209-0.55273 0.37663-0.65295 0.82844-1.4054 1.0293-1.6816 0.17576-0.27625 0.55276-0.17574 0.72852-0.70312 0.17576-0.55249 0.37731-0.75365 0.92969-0.37695 0.55239 0.3767 0.92776 0.37692 1.1035 0.9043 0.17576 0.5525 0.55273 0 0.55273 0l-0.37695-1.457-1.0039 0.17578s-0.47742-0.65345-0.55274-0.92969c-0.10044-0.27625 0.27734-0.35156 0.27734-0.35156s0.55226 0.55336 1.2051 0.07617c0.65281-0.45204 0.65158-1.005 1.2793-1.2812 0.65281-0.27625 1.1312-1.3809 2.0352-1.0293 0.92901 0.3767 2.0332 0.27676 1.6816 0.75391-0.37662 0.45204-0.82843 0.65148-1.0293 1.1035-0.17576 0.45204-0.37695 1.7578-0.37695 1.7578l1.4062-0.75195 0.07422 0.85352s0.47854-0.55276 0.6543-0.20117c0.20087 0.3767 0.02395 0.9037-0.27734 1.3809-0.55239 0.90408-0.92773 0.62891-0.92773 0.62891s-1.2804-0.000607-1.3809 0.65234c0 0-0.72849 0.75281-0.55273 0.47656 0.40174-0.62783-0.17612 0.0011-0.55274 0.27734-0.37663 0.27624-0.82812 0.07422-0.82812 0.07422s-0.85471-0.72826-1.4824-0.35156c-0.65282 0.35159-0.55224 0.90541-1.0293 1.0059-0.45195 0.10046-1.2804-0.8301-1.5566-0.6543-0.27619 0.2009-1.0285 0.20224-1.4805 0.83008-0.47706 0.65295-0.47691 2.0337-1.0293 2.7871-0.55238 0.72829-1.105 1.4818-1.582 2.3105-0.45195 0.82874-1.0059 2.1348-1.0059 2.1348l-0.27539 0.65234 0.17578 0.62695s-0.27619 1.6827 0 2.3105c0.27619 0.65294 0.65352 0.47791 1.1055 1.1309 0.47706 0.62783 1.4058 0.90346 2.4102 1.0039 1.0294 0.10045 1.4063-0.82728 1.7578-0.92774 0.37663-0.0753 1.3059-0.17748 1.7578 0.19922 0.47706 0.35159 1.3042 0.55273 2.1328 0.72852 0.82857 0.17579 1.4828-0.72829 2.0352 0 0.55238 0.7534 1.1038 0.55324 1.3047 1.3066 0.17576 0.72828 0.35156 1.4807 0.35156 2.3848 0 0.92919 0.15163 1.7082 1.1309 0.57812 2.2095-2.6118 4.8706-7.0071 5.3477-12.959 0.22598-2.8629-0.45312-2.4102-0.45312-2.4102l-1.4043 0.17578s-1.3812-1.6565-1.9336-2.209c-0.55239-0.55249-1.2067-1.0061-1.0059-1.3828 0.17576-0.3767 0.62923-0.37671 1.0059 0.17578 0.37662 0.5525 1.7576 1.6582 2.2598 1.6582 0.75325 0 1.2054-2.0334 1.4062-2.7617 0.17576-0.75341-0.70312-2.4863-0.70312-2.4863l-1.6582-0.27734s-0.82843 0.47851-1.0293 0.6543c-0.17576 0.20091-0.92823-0.93078-0.45117-1.207 0.45195-0.27624 1.3812-0.35156 1.7578-0.35156 0.35152 0 0.50195-0.25108 0.50195-0.70312s-0.10191-1.33-0.65429-2.0332c-0.22598-0.30136-0.3254 0.0505-0.77735-0.32617-0.47706-0.37671-1.7578-2.1348-1.7578-2.1348s-2.0335-1.2064-2.4102-2.0352c-0.37663-0.82874 0.22656-0.92774 0.22656-0.92774s1.0793 0.27538 1.5312-0.07617l-0.37695-0.55274s-2.862-2.4115-3.9668-3.2402c-1.1048-0.82874-3.6155-2.3091-5.5488-3.0625-1.9334-0.72829-5.0985-1.3809-9.166-1.3809zm9.7168 8.7891 0.17578-1.1055-1.3809 0.27734-0.92774 0.92773 0.47656 1.1816 0.17578 1.6816 0.37695 0.72852 0.65234-0.07617 1.1055 0.07617-1.4824-1.4824 0.17578-0.92773-0.27539-1.3828 0.92774 0.10156zm-15.478-6.922c-0.14751 0.002-0.29508 0.05301-0.43945 0.16602-0.55239 0.45204-0.45235 1.3055-0.9043 1.3809-0.47706 0.10045-1.4808-0.07506-1.8574 0.55273-0.37663 0.65295-0.45265 0.92909-1.1055 1.582-0.65282 0.65295-1.3803 0.65258-1.6816 1.2051-0.27619 0.55249-5.0472 3.316-5.4238 4.5215-0.37663 1.2054-0.55195 1.9592-1.0039 2.5117-0.47706 0.55249-1.582 1.1046-1.582 1.5566 0 0.47716-0.5519 0.75303-0.65234 1.2051-0.0753 0.47715-0.45312 0.92994-0.45312 1.3066 0 0.3767 0.37695 0 0.37695 0l0.62891-1.0312 0.47656 0.37695-0.92969 1.582s-0.55158 0.7036-0.27539 1.8086c0.2762 1.1301 0.55276 1.5817 0.72852 2.6113 0.20087 1.0045 0.47609 1.0061 1.1289 1.7344 0.62771 0.7534 1.0043 0.47705 1.5566 1.4062 0.55239 0.92919 1.5828 1.2053 1.3066 1.9336-0.27619 0.7534-0.20235 0.92907-0.6543 1.7578-0.47706 0.82874-1.2039 1.4804-0.92774 3.0625 0.27619 1.557 1.582 2.1099 1.582 2.8633 0 0.72829-3.0395 1.9352-2.0352 3.3164 1.1048 1.5821 2.1109 2.2337 3.1152 3.2383 1.0043 1.0296 3.8902 2.6877 4.8945 3.2402 1.0294 0.5525 1.8589-0.35182 2.5117-0.72852 0.62771-0.3767 0.82765-0.20115 1.4805-0.37695 0.62771-0.17579 0.72888-1.1038 1.457-1.4805 0.75325-0.3767 1.1289-0.55296 1.3047-1.2812 0.17576-0.7534 0.92899-1.0298-0.17578-2.1348l-3.0625-2.0352c-0.45196-0.47716-0.55194-0.65174-0.82812-1.3047-0.27619-0.65295-0.65269-1.1057-1.2051-1.4824-0.55238-0.35158-1.6566-1.3811-2.209-1.7578-0.55238-0.35159-1.7581-1.0042-1.959-1.3809-0.17576-0.3767-0.17578-1.0039-0.17578-1.0039l-0.65234 0.72656-0.83008-0.375 0.27734-0.92969-0.82813 0.20117s-0.80502 0.09961-1.1816 0.09961c0 0 0.55276-0.47765 0.72852-0.92969 0.17576-0.47716 0.35156-0.7533 0.35156-1.4062 0-0.62783-0.97932-0.90371-0.70312-1.3809 0.27619-0.45204-0.20042-1.1057-0.82812-1.6582-0.65282-0.55249 0.2767-1.0295-0.47656-1.582-0.72814-0.55249-1.834-0.07422-1.834-0.07422s-0.85239-0.20055-0.75195-1.0293c0.10043-0.82874-0.37741-1.4818 0.45117-2.1348 0.85368-0.62783 0.85388-1.2567 1.582-0.62891 0.75325 0.62783 1.5809 1.1054 1.6562 1.457 0.10044 0.3767 0.37777 0.6537 0.27734 1.3066-0.0753 0.65295 0.55276 0.82873 0.72852 0.17578 0.17576-0.62784-0.27697-1.1819 0.45117-1.3828 0.75326-0.17579 1.1289-1.0042 1.4805-1.3809 0.37663-0.3767 0.92921-1.0801 1.582-1.0801 0.65282 0 1.1046-0.65209 1.2051-0.27539 0.0753 0.35158 0.07617 0.87891 0.07617 0.87891l1.1289-0.25195-0.82812-1.0039 0.62891-1.0293-1.9336 0.20117 0.72656-0.92969 1.4062-0.09961s1.1047 0.47546 1.5566 0.19922c0.47706-0.27625 0.75391-1.957 0.75391-1.957-0.10044-1.0045-0.09961-1.834-0.09961-1.834l-0.92969 1.0039 0.20117-1.2812-0.37695-0.85352-0.92969 1.0293-1.1035 0.6543-0.27734 0.92969-0.82812-0.30273v-1.0039l0.17578-0.55273s0.3763-0.82899-0.37695-0.37695c-0.72814 0.47715-0.72802 0.92969-1.2051 0.92969-0.45196 0-1.2045 0.000615-0.62695-0.82812 0.55238-0.82874 2.1078-2.5131 2.6602-3.3418 0.57749-0.82874 1.9602-2.6866 2.4121-2.9629 0.47706-0.27625 1.3059-1.3811 1.7578-1.7578 0.47706-0.35158 2.032-0.55213 1.5801-1.2051-0.3578-0.47087-0.79965-0.90042-1.2422-0.89453zm5.6875 5.1641c-0.92901 0-1.3062 0.10069-2.1348 0.72852-0.82858 0.65295 0.82812 1.0293 0.82812 1.0293s-0.17413 0.37719-0.375 1.1055c-0.17576 0.75341-0.92969 1.4805-0.92969 1.4805l0.09961 1.7578 0.55274 0.55273 1.1055-2.209 2.334-0.47852 0.45312-1.7578-0.92969-1.4805-1.0039-0.72852zm-5.1973 0.09961-2.3867 1.1055s-0.3753 0.45253-0.57617 0.92969c-0.17576 0.45204 0.47578 1.7565 0.92773 1.1035 0.47706-0.65295 1.1055-1.582 1.1055-1.582l0.92969-1.5566zm1.0293 1.3809-0.82812 0.37695-0.37695 1.2812-1.2051-0.17578-0.17578 1.0039 0.92773 0.20117 0.07617 0.72852s0.55259-0.37743 1.582-1.4824c1.0043-1.105 0.82777-1.4807 0.27539-1.8574l-0.27539-0.07617zm21.994 4.0352c0.08538 0.0014 0.18661 0.01123 0.30273 0.0332l0.90234 0.17578s0.85434 0.75413 0.75391 1.4824c-0.10044 0.7534-0.92971 1.5826-1.1055 0.75391-0.20087-0.82874 0.07578-1.6836-0.65234-1.8594-0.6591-0.15382-0.79882-0.59555-0.20117-0.58594z" transform="translate(322.45 685.97)" fill="#006747"/>
    <path d="m37.883 71.719-1.0801 3.9922c-0.15065 0.85385-0.32653 1.9079-0.87891 2.4102-2.2598-1.2808-3.967-3.5149-5.9004-5.3984 0.42685 2.7876 1.4561 5.3243 2.5859 7.8105-0.55238 0.45204-1.3552 0.77842-1.6816 1.4062 4.7957 9.7691 14.513 17.353 24.857 19.738 0.62771 0.20091 0.65208-0.50274 0.80274-1.1055 0.70303-2.436 1.4077-4.4198 1.5332-6.5293-7.1057-1.9588-14.338-6.7295-18.33-13.184-0.10043-0.57761 0.85302-0.92884 1.3301-1.2051-1.5818-2.4611-2.3595-5.1982-3.2383-7.9355zm54.637 0c-1.2303 2.9885-2.4608 5.2729-4.0176 8.4121 0.40174 0.45204 1.2048 0.80324 1.1797 1.5566-3.8416 6.5797-10.772 9.9203-17.4 11.904l0.20117 0.47656 1.1543 2.6367c0.72815 1.5821 1.2568 2.8129 2.0352 4.4453 6.0511-1.783 11.726-5.2235 16.346-9.8945 2.6615-2.9634 5.6492-6.2774 6.9297-9.8184-0.47706-0.25113-1.0059-0.45338-1.5332-0.83008 0.62771-2.4109 1.3067-4.4694 2.0098-6.8301-0.128-0.175-0.078-0.377-0.379-0.277l-3.5645 3.1895c-0.60261 0.55249-0.90547 0.95424-1.3574 1.0547-0.62771-2.3355-1.0029-4.1419-1.6055-6.0254z" transform="translate(322.45 685.97)" fill="#fff"/>
   </g>
   <path d="m382.94 749.38-0.0962 0.23439c-0.10044 0.5525-0.20087 1.2557-0.27619 1.8333l-0.0768 0.47436m0.17157 1.045 2.8917 0.43251m16.201 21.066c13.358 0 24.179-10.824 24.179-24.184 0-13.31-10.822-24.134-24.179-24.134-13.333 0-24.129 10.824-24.129 24.134 0 13.36 10.797 24.184 24.129 24.184m2.787 0.35158c2.4355-1.5068 6.3273-5.3491 7.5576-7.5591l-1.2303-1.105s4.0927-4.3948 4.0927-8.4632l1.632 6.2783 5.2226-4.6711-1.4312 7.3331m-37.186-28.328c2.4857 2.1346 5.2728 3.0136 10.997 3.0136m-8.9888 12.029c1.155 0.27625 2.5108 0.45204 4.0676 0.52738 7.9343 0.35159 15.266-1.3812 20.112-3.767 0.40173-0.20091 0.80347-0.40181 1.155-0.62783 0.62771-0.32648 1.1801-0.67807 1.7074-1.0548 3.5905-2.3858 5.549-4.9976 6.5784-7.1322 0.25108-0.45204 0.42684-0.87897 0.57749-1.2808 0.35152-0.9292 0.50217-1.6575 0.5775-2.1598 0.27619-1.8584-0.27619-3.4154-0.72815-4.2442m-21.292-0.87897c-1.2303 0.45205-2.536 0.0251-2.9377-0.97942-0.40174-0.97942 0.27619-2.1346 1.5065-2.5867 1.2303-0.45204 2.536-0.0251 2.9377 0.95431 0.40173 0.97942-0.27619 2.1597-1.5065 2.6118m-3.0381-0.97942s-1.6069 0.5525-3.8416 2.6369c-1.5567 1.557-3.0381 3.1643-4.6702 5.8765-1.155 1.9588-2.0338 3.8675-2.6364 5.8012-0.35152 1.105-0.62771 2.2351-0.82858 3.4154m-0.40173 2.3104c-0.20087 1.7579-0.12555 2.9634-0.0753 4.9473 0.0251 2.5113 0.55239 4.7464 1.2805 6.7053m8.9888-34.029c0.25108 0.0251-3.716 0.0502-4.7204 1.0548m-4.2684 32.974c0.82858 2.2351 1.9082 4.0935 2.7619 5.5501m8.5118-39.277c-0.50217-0.12557-1.3308-0.40181-1.9585-0.47715m-12.454 32.647c0.42684 0.50227 1.381 1.3059 2.787 2.1095 2.4104 1.3561 6.0762 2.4611 11.525 2.4611 0.95412 0 1.9082-0.10046 2.8624-0.20091 6.3524-0.62783 12.278-2.4109 16.521-4.9222 0.6026-0.35159 1.1801-0.72829 1.7074-1.1301 3.4147-2.4862 4.8208-6.0523 7.8589-9.1162 0.70304-1.557 1.5567-2.888 1.5567-5.2487m-47.606 2.21c0.0753 0.90408 1.5567 4.9724 6.1767 4.9724m11.84-15.5c-0.2762 1.8584-0.52728 4.0684-0.52728 6.1528 0 5.0729 0.35152 12.205 2.4857 19.413 2.1342 7.2075 4.7706 11.401 4.7706 11.401m-4.7706-45.229c-0.10043-1.6826 0.17576-2.2351 0.65282-2.9634m-15.894 9.5682c-0.17576 0.70317 0.0753 1.783 0.77836 2.7122m10.872 2.7876c0.52728-0.0753 1.0797-0.15068 1.6572-0.27624 4.9966-1.0045 10.922-3.7168 13.584-7.1573 0.82857-1.0799 1.4061-1.8835 1.7576-2.5616 0.70303-1.3561 0.45195-2.1598-0.72815-3.541m-13.684 5.1231s-0.22598 0.77851-0.47706 2.0091c-0.15065 0.72828-0.3013 1.6072-0.47706 2.5616m3.5152-7.8354c1.9334-1.5821 5.323-2.5113 7.7836-2.888m-7.3066 3.6414s5.2728-0.67806 11.399 1.6073c0.17575 0.0753 0.35151 0.12556 0.52727 0.2009 2.7368 1.105 4.9212 2.3607 6.6537 3.6414 5.4736 3.993 6.5784 8.2121 6.5784 8.2121m-25.34-12.63c1.0043 0.3767 3.7914 1.9337 6.6537 6.3788 0.97923 1.5068 2.1091 3.4656 3.2139 5.751 0.47706 0.97942 0.95412 1.984 1.4061 3.0638 0.20087 0.47716 0.40174 0.97942 0.5775 1.4566 1.3558 3.5159 2.4857 7.4587 2.9377 11.552 0.0753 0.65295 0.12555 1.3059 0.17576 1.984" stroke="#cfc493" stroke-width="1.0463" fill="none"/>
   <path d="m405.35 774.77 4.0676-3.1392 11.148-7.082-0.70303 1.8584 0.6026 0.82874-5.9256 9.0659-9.1897-1.5319z" fill-rule="evenodd" fill="#fff"/>
   <path d="m69.52 6.6738c-2.4355 0-4.5948 1.206-5.9004 3.2402-0.62771 1.0548-1.0047 2.3604-1.0801 3.6914v0.65234c0.0502 0.95431 0.27657 1.8839 0.72852 2.6875 0.97923 2.21 3.3136 3.6666 5.6738 3.8926 0.20087 0 0.37726-0.000293 0.57812-0.02539 2.1342-0.12556 4.0682-0.9039 5.4492-2.6367 0.87879-1.1301 1.3309-2.5607 1.4062-3.9922v-0.9043c-0.0502-1.0548-0.32735-2.1093-0.7793-2.9883-0.97923-1.7077-2.6607-3.1155-4.6191-3.4922-0.50217-0.10045-0.97997-0.125-1.457-0.125zm-12.108 0.418c-0.24598-0.023151-0.51008-0.021635-0.79883 0.00977-1.1048 0.17579-2.3597 0.90394-2.7363 1.9336-1.9585 5.1231 4.8705 4.6717 6.9043 7.6602 0.37663 0.80363 0.47792 1.5064 0.25195 2.4355-0.27619 0.62783-0.72943 0.92883-1.332 1.2051-1.4061 0.47715-2.9616 0.14991-3.8906-0.95508-0.70303-1.0799-0.67864-2.2344-1.2812-1.707l0.65234 2.5117c1.0294 0.45204 1.8833 1.1041 3.3145 0.97852 1.0797-0.17579 2.136-0.35151 2.9395-1.2305 0.42685-0.72829 0.62637-1.4804 0.57617-2.3594 0.05021-1.8082-1.631-3.0153-3.0371-3.8691-1.5316-0.97942-4.0941-1.8074-4.4707-3.1133-0.17576-0.9292 0.02546-1.5323 0.55274-2.1602 0.55239-0.5525 0.80395-0.70256 1.6074-0.82812 0.77836-0.05023 1.8069 0.32614 2.0078 0.85352 0.25108 0.87897 0.27633 1.2559 1.0547 1.0801-0.15065-0.7534-0.24945-1.0541-0.375-1.707-0.621-0.3776-1.201-0.6697-1.939-0.7392zm10.803 0.4668c0.18828-0.00684 0.37536-0.00503 0.5625 0.00586 0.24952 0.014518 0.49738 0.045896 0.74219 0.089844 1.632 0.30136 3.1631 1.2555 4.1172 2.6367 1.7074 2.0593 2.0841 5.3486 0.70312 7.7344-1.1299 1.5821-2.9372 2.1856-4.8203 2.0098-0.35152-0.0251-0.67778-0.07529-1.0293-0.17578-2.8624-1.0548-4.4685-4.0947-4.6191-7.0078-0.17576-2.1095 0.77703-4.0435 2.6602-4.9727 0.55082-0.19776 1.1187-0.2998 1.6836-0.32031zm10.244 0.87305c-0.27619-0.07534-0.40315 0.35268-0.12695 0.45312 0.35152 0.12557 1.1802 0.55129 0.87891 1.3047-0.80347 3.089-1.4055 4.8971-2.3848 8.3125-0.05022 0.90408-0.12661 2.0594 0.42578 2.8379 0.92901 1.4566 2.4874 2.2109 4.1445 2.2109 0.32641 0 0.92917-0.07675 1.2305-0.12695 1.3056-0.27624 2.033-0.95388 2.7109-2.084l2.662-7.635 0.275-0.828c0.20086-0.55245 0.67836-0.27512 1.2559-0.07422 0.32641 0.15068 0.62745-0.2525 0.15039-0.47852l-2.41-1.08-0.326-0.099c-0.32639-0.12557-0.52784 0.22515-0.05078 0.45117 0.70304 0.3767 0.62749 0.87999 0.50195 1.332l-2.7363 7.8359-0.42773 0.90234-0.72656 0.60352c-1.0294 0.52738-2.3617 0.65266-3.4414 0.15039-0.95412-0.62783-2.1082-1.7585-1.4805-4.1191l2.2344-7.3574 0.25195-0.65234c0.177-0.4771 0.703-0.5025 1.13-0.3769 0.327 0.1009 0.503-0.3273 0.227-0.4278-1.808-0.5776-2.184-0.6277-3.967-1.0547zm-31.016 3.2524c-0.19106 0.01726-0.37739 0.06989-0.54688 0.16406-0.77836 0.32647-1.1052 0.92879-1.0801 1.7324 0 0.72828 0.30222 1.4575 0.60352 2.2109 0.17576 0.45204 0.42578 1.3047 0.42578 1.3047-0.27619 0.15068-0.42505 0.17716-1.2285 0.47852-0.62771-0.42693-1.2057-0.6038-1.7832-0.62891-0.62771-0.02512-1.23 0.17575-1.8828 0.52734-1.2554 0.70317-1.6825 2.1358-1.582 3.4668 0.22597 1.1552 0.87734 2.0834 1.7812 2.5605 0.57749 0.27625 1.1563 0.40205 1.6836 0.37695 0.6026-0.02511 1.1544-0.17492 1.6816-0.45117 1.0043-0.60272 1.3301-1.2826 1.5059-2.2871 0.22598-1.1301-0.25006-2.359-0.77734-3.0371 0.22598-0.05022 0.87891-0.32812 0.87891-0.32812 0.47706 1.3812 0.8293 2.136 1.2812 3.668 0.32641 1.0548-0.0014 1.029-0.30274 1.3555-0.22598 0.17579-0.10041 0.47685 0.17578 0.32617 0.92902-0.45204 1.8341-0.85378 2.7129-1.0547 0.37662-0.07534 0.27619-0.40234 0-0.40234-0.40174 0.02511-1.0302 0.15071-1.2812-0.35156l-1.6816-3.8926c0.37663-0.17579 0.65241-0.30104 1.1797-0.50195-0.05022-0.2009-0.12613-0.37554-0.22656-0.60156l-1.2559 0.40039c-0.52728-1.4315-1.431-3.0373-1.2051-3.9414 0.30131-0.50227 0.77854-0.8538 1.4062-0.70312 0.47706 0.10045 0.77794 0.65287 1.0039 1.0547 0.32641-0.1758 0.17715-0.52732 0.12695-0.87891-0.41429-0.35783-1.0401-0.61819-1.6133-0.56641zm43.268 1.1934c-0.37662 0.47716-0.40097 0.55327-0.62695 0.95508-0.50216 0.72829 0.12536 1.1052 0.67774 0.37695 0.65282-0.52738 2.5364 0.6029 3.6914 1.4316l-5.2734 8.8145-0.40234 0.62695c-0.62772 0.92919-1.3301 0.70313-1.8574 0.52734-0.30127-0.1758-0.45254 0.20088-0.22656 0.35156 1.2303 0.72829 1.7825 0.95389 3.1133 1.9082l0.37695 0.25195c0.30127 0.22602 0.6283-0.05075 0.22656-0.40234-0.57751-0.65295-0.40313-1.6573 0.04883-2.4609l5.4746-8.6387c1.4061 0.80363 1.8076 1.1051 2.7617 1.7832 0.20086 0.20091 0.05104 0.7028-0.09961 1.3809-0.15065 0.47715 0.20093 0.70427 0.52734 0.27734 0.3013-0.42692 0.57594-0.90594 0.90234-1.4082-2.9126-2.3858-6.1006-4.143-9.3145-5.7754zm-55.564 2.2363c-1.2303 0.57761-2.386 1.4559-3.3652 2.2344-0.30131 0.25113 0.04969 0.57674 0.30078 0.45117 0.6026-0.42693 1.2562-0.47715 1.2812 0 0.0251 1.984 0.05078 4.3445 0.05078 6.1777-1.8329-0.57761-3.7926-1.2304-5.5-2.1094-0.45196-0.20091-0.17463-0.75193 0.10156-1.1035 0.27619-0.3265 0.07557-0.70343-0.32617-0.37695-1.2303 1.0799-1.6327 1.33-2.6621 2.3848l-0.528 0.528c-0.25108 0.22599 0.07597 0.55248 0.57812 0.17578 0.62771-0.40181 1.1293-0.47629 1.6816-0.27539l6.1523 2.2852 2.7363 3.7422c0.82858 0.87897-1.3813 2.31-0.37695 2.4355 1.4312-1.2808 2.5618-2.1601 3.8926-3.0391l-0.32617-0.32617c-0.55238 0.32647-1.3315 0.72827-1.8086 0.17578l-2.7871-3.8672-0.17578-6.5547c0.05022-1.1301 0.32628-1.7321 1.2051-2.5859l-0.125-0.35156zm8.2168 2.4531c0.1632-0.0063 0.32005 0.0061 0.4707 0.03125 0.55239 0.10046 1.0039 0.42743 1.3555 0.75391 0.72814 0.72828 1.0536 1.431 1.1289 2.7871 0.05021 0.67806-0.32458 1.4573-1.0527 1.834-0.42684 0.17578-0.92947 0.22569-1.4316 0.15039-0.40173-0.05022-0.82956-0.17632-1.1309-0.40234-1.1299-0.95431-1.5304-1.8082-1.2793-3.541 0.17576-0.80363 0.75177-1.2299 1.4297-1.5312 0.17576-0.0502 0.34656-0.07576 0.50976-0.08203zm58.346 2.293c-0.80347 0.25113 0.80315 1.1291-0.37695 2.209l-7.1562 7.3828c-0.50217 0.55249-1.1044 0.10186-1.707-0.22461-0.25108-0.17579-0.50303 0.15038-0.25195 0.32617 1.2303 0.97942 1.9837 1.6581 3.1387 2.7129 0.30131 0.30136 0.55215-0.12554 0.32617-0.35156-0.27621-0.3767-0.7279-1.1571-0.32617-1.584 1.0797-1.0548 2.2597-2.2853 3.6406-3.541 1.4814 1.4064 3.0147 2.8883 4.3203 4.4453l-3.541 3.8184c-0.35152 0.27625-0.98025-0.07671-1.4824-0.47852-0.20087-0.15068-0.55186 0.077-0.30078 0.32812 1.2052 1.3561 1.9839 2.3091 2.8125 3.4141l-0.125-0.17578c0.17576 0.22602 0.55271 0.05108 0.37695-0.27539-0.22598-0.47716-0.5284-1.2064-0.10156-1.6836l7.2812-7.5332c0.82858-0.77851 1.2805-0.15042 1.7324 0.20117 0.17576 0.20091 0.55271-0.02593 0.37695-0.25195-1.0043-1.2306-1.9337-2.284-2.8125-3.2383-0.35151-0.35158-0.67714 0.04937-0.45117 0.27539 0.17576 0.25113 0.75325 0.82918 0 1.6328-1.2303 1.3812-1.3066 1.4815-3.2148 3.3398-1.3307-1.4817-2.7865-2.9636-4.293-4.4453l2.9629-3.0879c0.85368-0.82874 1.4306-0.30274 1.8574-0.12695 0.32642 0.22602 0.65286-0.07531 0.35156-0.35156-0.95412-1.105-1.9574-1.7318-3.0371-2.7363zm-78.162 4.4199c-2.3602 2.2602-4.4202 4.7704-6.5293 7.8594 0 0 0.57737 0.77839 1.2051 1.7578 0.37662 0.65295 0.75329 0.22636 0.35156-0.85352-0.12554-0.47715-0.27565-1.2045-0.125-1.6816 0.87879-1.1552 0.72695-1.0061 1.6309-2.0859l8.1855 7.209c0.67793 0.52738 0.42687 1.356 0.17578 1.9336-0.15065 0.47715 0.20204 0.60214 0.45312 0.30078 0.97922-1.3561 1.3551-1.833 2.7109-3.3398 0.32641-0.37674 0.02534-0.65207-0.32617-0.45117-0.47706 0.1506-1.1544 0.75228-2.0332 0.07422l-8.1602-7.0059c0.52728-0.65295 0.97804-1.1308 1.6309-1.834 0.72815-0.65295 1.2819-0.55274 2.2109-0.37695 0.67793 0.10045 0.67684-0.4266 0.25-0.67773-0.65282-0.32647-1.0785-0.577-1.6309-0.82812zm40.826 0.95312c-1.3308-0.02512-3.3409 0.17604-4.8223 0.37695l-1.0781 2.4121-4.6719 9.1152 10.572-11.904zm2.3086 0.02539c-3.465 3.8675-6.7281 8.8148-9.8164 12.557 4.9212-3.8172 9.6159-7.911 14.889-11.352 0.42684 0.55249 0.10126 0.87973-0.09961 1.1309-4.4693 4.1186-8.5125 8.1108-12.756 12.305l17.023-8.8145 0.87891-0.17578c0.2762 0.25113 0.35097 0.57755 0.125 0.87891-5.2979 3.5159-10.545 7.1066-15.969 10.221l16.848-5.0977 0.30273 0.30274-17.777 7.8086 4.7949-0.75195c21.141-14.139 49.012 7.2073 35.102 35.711 0.17576 0.25113-0.67659 1.1806-0.40039 1.2559-3.5152 8.2874-11.4 15.494-19.535 19.01-1.6572 0.70317-2.1602 0.904-4.4199 1.582-0.35152 0.1758-0.55108 0.25086-0.75195 0.1504-1.1299-2.1095-1.7072-3.7164-2.9375-6.1523-1.2554 0.97942-2.335 1.8839-3.8164 2.5117 1.1299 0.57761 2.2588 0.92963 3.2129 1.8086-2.7619 1.8082-6.3768 1.6569-9.666 1.0039-0.6026-0.30136-0.90521-0.37608-1.5078-1.0039 1.0043-0.77851 2.2102-1.2307 3.1895-1.7832-1.811-0.78-3.719-1.734-4.849-3.115l-1.4824 6.252c-0.22597 0.87895-0.52609 1.1298-1.6309 0.85352-10.621-2.3104-21.418-10.948-25.611-21.119 0.60261-0.02512 0.97997-0.60266 1.457-0.87891-0.82857-2.6118-2.0084-5.1999-2.4102-7.7363-0.85368 0.87897-1.6067 1.8841-2.4102 2.8887 1.0797 4.2944 3.0377 8.1878 5.5234 11.93 8.8633 12.582 23.3 18.909 38.516 16.9 14.236-1.783 28.398-13.385 32.215-27.373 3.0381-8.9404 2.1343-19.288-1.3809-27.676-5.671-13.51-20.059-23.756-34.848-24.032zm-10.068 0.9043c-0.9039 0.17579-1.5554 0.30188-2.4844 0.57812-0.70304 2.4109-1.7339 6.0277-2.2109 8.3633l4.6953-8.9414zm-4.8965 1.3555-0.47656 0.17578c-1.3308 0.47715-1.7324 0.75391-1.7324 0.75391-0.20089 2.2351-0.12474 4.3447-0.27539 6.3789l2.4844-7.3086zm-4.7695 2.0605c-0.32641 0.2009-0.4515 0.24971-0.82812 0.40039l0.40039 4.1191c0.15066-1.0799 0.25198-2.9374 0.42774-4.5195zm-3.0137 1.707c-0.45196 0.30136-0.80224 0.55356-1.2793 0.80469 0.47706 1.2808 1.204 2.5362 1.6309 3.6914-0.07532-1.3561-0.27626-3.14-0.35156-4.4961zm-2.9629 2.1348c-0.35152 0.22602-0.47604 0.35127-0.77734 0.50195 0.57749 0.95431 1.3561 2.3856 1.9336 3.1641l-1.1562-3.666zm-24.891 0.24805c-0.05336 0.01648-0.10491 0.05984-0.14258 0.12891l-0.35156 0.50195-0.77734 1.332-0.75391 1.3047-0.30078 0.50195c-0.22597 0.45204 0.07455 0.60271 0.45117 0.17578 0.47706-0.47715 1.1061-0.6532 1.6836-0.37695 3.4398 2.0342 4.8456 2.7881 8.6621 5.1738 0.57749 0.40182 0.57782 1.0544 0.37695 1.7324-0.20086 0.65294 0.17497 0.77961 0.45117 0.27734 0.62771-1.2306 0.90358-1.9095 1.8828-3.2656l0.32617-0.55274c0.17576-0.22604-0.15017-0.502-0.65234 0.02539-0.42685 0.30136-1.055 0.45231-1.6074 0.20117l-8.009-4.544-0.55-0.377c-0.50217-0.35158-0.70477-1.1797-0.50391-1.707 0.15065-0.39554-0.02353-0.58069-0.18359-0.53125zm22.506 1.6602-0.55274 0.47852c0.80347 0.95431 1.6332 2.0577 2.1855 2.6855-0.32641-0.85385-1.2311-2.2098-1.6328-3.1641zm-2.084 1.959-0.65234 0.67774c0.72815 0.7534 1.5308 1.1813 2.7109 2.0352-0.80347-1.0296-1.2551-1.7084-2.0586-2.7129zm-2.1094 2.2852-0.55273 0.75391c0.77836 0.50227 2.0347 1.0044 2.8633 1.2305l-2.3105-1.9844zm83.217 1.1309c-0.11649 0.03732-0.19506 0.22015-0.082 0.60156 0.17576 0.62783-0.20204 1.0564-0.45312 1.207l-8.1348 3.9668-1.2793 0.57812c-0.60261 0.2009-1.507-0.62887-1.7832-1.1562-0.15065-0.40182-0.60211-0.32619-0.47656 0.02539l0.25 0.62891 1.0293 2.4609 0.57812 1.5566c0.12554 0.3767 0.6021 0.22633 0.47657-0.32617-0.17577-0.65295-0.0504-1.3814 0.50195-1.7832l4.3945-2.0352c0.35151 0.67806 0.37643 0.83031 0.67773 1.3828 0.32641 0.97942 0.0998 1.5318-0.40234 1.7578l-0.375 0.20117c-0.27619 0.2009-0.17739 0.75169 0.375 0.55078 1.2303-0.65295 1.607-0.77675 2.9629-1.2539 0.40174-0.15068 0.17656-0.60353-0.27539-0.42773-0.47706 0.15068-1.1309-0.27562-1.4824-1.0039-0.65283-1.4817-0.10053-0.15224-0.70313-1.5586 1.6823-0.92919 3.2656-1.7321 4.998-2.4102 0.55239 1.2808 1.1046 2.8892 1.2051 3.8184-0.0502 0.77852-0.47772 1.0544-0.75391 1.2051-1.2303 0.82874-0.77757 1.1286 0.0762 0.92774l1.957-0.50195c-0.85369-3.2396-1.1031-3.6669-2.2832-6.5801l-0.6543-1.5059-0.0742-0.17578c-0.0377-0.06906-0.0908-0.11708-0.14649-0.14062-0.0418-0.01766-0.0842-0.02218-0.12304-0.0098zm-105.3 1.135c-0.04835 0.01128-0.08699 0.0346-0.11523 0.07227-0.8788 0.60272-1.5821 1.2809-1.9336 2.4863-0.52728 1.6072 0.0501 2.7868 1.2051 3.6406 3.4901 2.0593 6.2525-2.3097 8.5625-3.1133 0.85369-0.30136 1.28-0.07452 2.0332 0.25195 0.82858 0.40182 1.2807 1.1537 1.4062 2.1582 0 1.0799-0.30062 1.8091-1.1543 2.7383-1.0043 0.82874-2.0094 0.92832-3.1895 0.97852-0.67793 0-0.27646 0.55332 0.15039 0.60352 0.85368 0.20091 1.2554 0.27568 1.7324 0.30078 1.6572-1.0296 3.0879-2.7365 3.0879-4.6953-0.02511-1.4315-0.8534-2.8624-2.2344-3.4902-4.0676-1.783-6.1265 3.942-9.5664 3.2891-0.6026-0.1758-1.3053-0.55269-1.5312-1.2559-0.17576-0.95431-0.051-1.5318 0.45117-2.2852 0.65282-0.87893 1.5584-0.87999 2.4121-0.80469l0.07422-0.27539c-0.28561-0.1758-1.0522-0.67858-1.3906-0.59961zm20.322 0.07227c-0.15065 0.22602-0.14931 0.25053-0.40039 0.65234 0.77836 0.30136 2.2833 0.95508 2.9863 0.95508-0.40173-0.40181-1.8076-1.2307-2.5859-1.6074zm-1.7832 2.6621-0.67773 1.1797 4.0938 0.15039c-1.0294-0.52738-2.0853-0.92826-3.416-1.3301zm-1.7324 3.2656-0.85352 1.8828 6.8301-1.0547c-1.8831-0.40181-4.0181-0.62721-5.9766-0.82812zm91.914 2.3262c-0.0973 0.04081-0.18021 0.17158-0.14258 0.41016 0.12556 0.5776-0.14989 1.1054-0.62695 1.2812-3.9922 1.0548-6.0502 1.5808-10.168 2.5352-0.72814 0.17579-1.4565-0.87831-1.582-1.3555-0.12554-0.40181-0.55355-0.22492-0.45312 0.10156 0.82858 3.0387 1.2816 5.6242 1.4824 9.0898 1.0043 0.22602 1.958 0.32616 2.7363 0.50195l0.1-0.476c-1.6069-0.80363-2.485-1.6575-2.7109-4.0684 0-0.92919 0.0749-2.0837 1.0039-2.4102 3.7412-0.97942 6.202-1.4824 10.094-2.1855 0.67795-0.15068 0.90404 1.0304 1.0547 1.4824 0.10044 0.30136 0.47656 0.17441 0.47657-0.12695-0.2-0.954-0.4-1.883-0.78-3.691l-0.25195-0.95312c-0.0251-0.12557-0.13708-0.17558-0.23438-0.13477zm-86.712 1.088c-2.1342 0.07534-4.721 0.65322-6.8301 0.72852-0.25108 0.57761-0.37754 0.98013-0.60352 1.6582l7.434-2.387zm-12.414 1.0801c-0.1224-0.03139-0.22906 0.12664-0.19141 0.62891-0.0251 0.3767-0.17609 0.57672-0.37695 0.80274-1.0546 1.3812-3.942 1.7589-6.4277 2.3867-0.32641-1.0045-0.7526-1.6827-1.5059-2.4863-0.62771-0.60272-1.506-0.85518-2.3848-0.83008-1.155 0.05022-2.3357 0.55267-3.0137 1.4316-0.12554 0.27625-0.14985 0.22682-0.27539 0.60352-0.40174 2.3355-0.55304 3.7666-0.75391 6.1523-0.10043 0.60276 0.37669 0.50143 0.52734-0.07617 0.27619-0.52738 0.45072-0.77791 1.2793-0.65234l2.2363 0.27734 7.5312 0.90234 0.55273 0.10156c1.0294 0.15068 0.67836 1.8834 1.2559 1.7578l0.45117-4.8477c-0.65282-0.42692-0.52607 1.4316-1.4551 1.4316-1.7325-0.30137-3.0895-0.37637-4.7969-0.67773 0.10043-0.50226 0.20146-0.90314 0.22656-1.5059 2.31-0.52738 5.1732-0.57828 6.8555-2.3613 0.62768-0.82874 0.65122-1.6833 0.55078-2.5371-0.0251-0.25114-0.16276-0.47056-0.28516-0.50195zm12.188 1.4062-7.7832 2.1855c-0.20087 0.80363-0.32676 1.5819-0.55274 2.8125 2.8624-1.8333 5.7749-3.3406 8.3359-4.998zm-23.1 0.62891h0.02539c1.0294 0.02512 1.8572 0.32501 2.5352 1.1035 0.62771 1.0799 0.65258 1.984 0.32617 3.3652-0.10043 0.40177-0.32539 0.40342-0.77734 0.32812l-2.083-0.277-3.0903-0.403c0.05022-0.90408 0.17638-2.2092 0.57812-2.9375 0.40173-0.70317 1.256-1.1797 2.4863-1.1797zm25.887 0.87891-11.424 5.625c-0.15066 1.6826-0.25108 3.0629-0.17578 4.8711 3.942-3.2647 7.9338-7.0807 11.6-10.496zm1.0801 2.7363-12.605 10.121c0.22597 2.4109 0.37756 3.4407 0.7793 5.1484l11.826-15.269zm2.3848 1.1562c-3.5905 4.0432-7.105 8.1872-10.193 12.406 1.1048 0.77851 1.6316 2.409 2.9121 2.6602 2.4104-4.9222 5.147-10.144 7.2812-15.066zm2.0332 1.4062c-2.9377 4.7715-5.0467 9.9196-8.1602 14.666v0.50195c0.32641 0.45204 0.87926 1.0036 1.4316 1.1543 0.1506-0.10045 0.04912-0.32643 0.07422-0.52734 0.40173-2.3606 0.82996-4.4201 2.0352-6.3789 0.90391 0.57761 0.70237 1.9098 1.3301 2.7637 1.2303-4.0432 2.2345-8.1113 3.2891-12.18zm73.413 1.708c-3.0883 0.22602-5.55 2.3366-6.3535 5.2246-0.10045 0.50226-0.12529 1.0036-0.15039 1.5059v0.35156c0.0502 1.984 0.72815 3.8668 2.2598 5.248 1.2052 1.2557 3.013 1.8089 4.6953 1.834 0.50217 0 0.97969-0.0497 1.4316-0.125 2.5611-0.37671 4.72-2.7376 5.3477-5.1484 0.55238-2.4109-0.12603-4.7476-1.6074-6.4805l-0.17578-0.17578c-1.35-1.481-3.01-2.234-4.99-2.234h-0.45117zm1.6758 1.3145c0.40174-0.0031 0.79637 0.02901 1.1856 0.0918 1.2554 0.3767 2.2105 1.3052 3.0391 2.4102 0.77836 1.1552 0.70189 4.1199-0.27734 5.6016-1.155 1.8584-3.0126 2.8621-5.1719 3.2891-0.42684 0.07534-0.87812 0.15068-1.3301 0.17578-1.6823-0.05023-3.3642-0.97867-4.3184-2.7617-0.6026-1.6072-0.22589-3.8174 0.70312-5.3242 1.1299-1.8333 3.0371-2.9885 4.9453-3.3652 0.41429-0.07534 0.82288-0.11405 1.2246-0.11719zm-99.648 0.46875c-0.30131-0.02512-0.50356 0.25082 0.04883 0.50195 1.4814 0.67806 1.7325 1.4073 1.9082 2.0352 0.32641 1.2054 0.000186 2.9885-0.67774 3.3652l-4.7695 0.375c-0.15067-1.1552-0.15097-1.455-0.20117-2.334 0-0.42692 0.27492-0.80412 0.92774-0.92969 0.42684-0.05023 0.42684-0.52842 0-0.45312-0.92901 0.05023-1.7813 0.10048-2.4844 0.17578-0.52729 0.05023-0.45335 0.55411 0.04883 0.50391 0.42685-0.05023 0.70454 0.04906 0.83008 0.77734 0.05024 0.97942 0.2003 1.2563 0.125 2.3613l-3.4395 0.32617-1.8828 0.09961c-0.22597 0.02511-0.50253-0.1498-0.55273-0.62695-0.15065-1.1301-0.25224-2.5373-0.27734-3.4414 0.25108-0.47715 0.47774-0.47542 0.92969-0.72656 0.47706-0.02511 0.62691-0.45228 0.27539-0.55274l-1.8066 0.125c0.02511 2.4611 0.19952 4.0691 0.40039 6.0781l0.25195 1.832c0.10044 0.65293 0.70371 0.8039 0.75391 0.02539 0.07532-0.77852 0.40048-1.0302 1.1035-1.1055 3.6156-0.30136 5.5239-0.4757 9.5664-0.75195 0.97923-0.07534 1.3817 0.50246 1.6328 1.2559 0.02511 0.42696 0.60238 0.42638 0.50195-0.05078-0.40174-2.0342-0.65292-5.1987-0.70312-8.1621-1.0546-0.35159-1.2795-0.40176-2.5098-0.70312zm91.057 9.8906c-0.0834-0.0097-0.16122 0.06095-0.18946 0.23047l-0.0762 0.30078-0.92969 3.666c-0.10043 0.42696 0.35187 0.42834 0.55274-0.04883 0.22598-0.62783 0.55255-0.82982 1.2305-0.62891l2.6113 0.67774 1.8574 0.55273c0.27617 0.07534 0.25187 0.30269 0.0762 0.83008-0.17576 0.45204-0.27709 0.62724-0.42774 0.65234-2.2598 0.30136-6.8788-0.27726-7.9082 2.5605-0.8788 2.5364-1.2049 3.1896-2.2344 4.9727-0.32641 0.57761 0.1747 0.75477 0.42578 0.30274 0.60261-0.77851 1.2554-0.65432 2.084-0.30274l8.2363 4.3945c0.55238 0.35159 0.95334 1.0557 0.45117 2.2109-0.20087 0.3767 0.12672 0.72883 0.45313 0.22656 0.82858-1.6826 1.3556-2.5116 2.2344-4.0938 0.22598-0.52738-0.17526-0.75421-0.47656-0.25195-0.55238 0.85386-1.0796 0.90514-1.7324 0.62891l-5.75-3.1152c-1.381-1.105-4.1179-1.3804-3.3145-3.8164 0.52727-1.331 1.2546-1.7324 2.1836-1.9082 1.7827-0.12556 2.3094-0.1261 4.4688-0.22656h0.7539c-0.0502 1.1552 0.40272 2.3607 1.1309 3.1895 0.77836 0.85386 1.6558 1.2801 2.8359 1.1797 0.0753 0 0.17665-0.02539 0.25195-0.02539 2.3853-0.77852 2.8876-2.987 3.3145-5.1719 0.17576-0.9543 0.35047-1.5582 0.60156-2.5879 0.10043-0.4018-0.22491-0.55277-0.42578-0.02539-0.15065 0.3767-0.35166 0.75363-1.0547 0.55273l-2.6875-0.72852-5.3984-1.4316-2.1836-0.70312c-0.42684-0.12556-0.72823-0.70335-0.70313-1.4316 0.0314-0.3767-0.12268-0.61468-0.26171-0.63086zm-100.82 1.222c-0.16006-0.01256-0.28682 0.12498-0.26172 0.38867l0.45312 2.209 0.17578 0.72852 0.0995 0.528c0.12554 0.57761 0.57675 0.40267 0.62695-0.27539 0.05021-0.65295 0.35307-1.0056 1.1816-0.98047l8.9883 0.75391 0.72852 0.10156-6.3281 6.3535-0.85352 0.85352c-0.77837 0.77851-1.2297 0.5776-1.5059 0.17578-0.3013-0.42693-0.7045-0.15043-0.47852 0.37695 0.52728 1.0799 0.85443 1.7828 1.457 3.3398 0.20087 0.42693 0.65372 0.25117 0.42774-0.52734-0.12554-0.62784 0.04944-1.0307 0.45117-1.5078l9.2656-9.5176-10.521-0.9043-1.5059-0.25c-1.3821-0.149-1.6837-0.829-1.9348-1.331-0.1129-0.339-0.3067-0.501-0.4667-0.514zm107.46 4.118c0.071 0.0094 0.15193 0.03306 0.24609 0.06445l1.6562 0.45117 2.2598 0.60352c1.155 0.42693 0.55297 1.4809 0.22656 2.5859-0.45195 1.0799-1.1042 1.457-2.0332 1.6328-0.15065 0.0251-0.30248 0.04883-0.45313 0.04883-1.0546 0.02512-2.0835-0.72676-2.7363-1.8066-0.5775-1.0045 0.10133-2.311 0.42774-3.2402 0.0753-0.28252 0.19322-0.3681 0.40625-0.33984zm-23.355 1.4453c-0.20086 0.3767-0.22686 0.47598-0.42774 0.77734 0.77836 1.0296 0.95458 1.508 1.4316 2.2363-0.50217-0.05023-1.3804-0.30244-2.3848-0.62891-0.27619 0.30136-0.37672 0.4782-0.70312 0.98047l3.7148 2.8613c0.20087-0.22602 0.30108-0.45031 0.50195-0.72656-0.75325-0.57761-1.3796-1.0307-2.1328-1.6836 1.4061 0.35158 1.756 0.52759 2.6348 0.9043l0.43-0.702-1.355-1.985c0.9039 0.35159 1.3553 0.70338 2.0332 1.0801 0.12554-0.25113 0.42773-0.45228 0.42774-0.72852-1.2805-0.82875-2.6363-1.5309-4.168-2.3848zm-52.7 2.385c-0.37663 0.17579-0.7793 0.47822-0.7793 0.45312 0.42685 0.7534 0.78006 0.92937 0.15234 1.4316-1.1299 0.87897-2.2858 1.757-2.6875 2.0332 0.22598 0.17579 0.35188 0.80469 0.72852 0.80469l3.1133-2.3359 0.87891 0.82812c0.32641-0.22602 0.42694-0.37636 0.70312-0.67774l-2.109-2.537zm16.947 0.7793c-0.67793 0.92919-0.6523 1.2563-0.30078 3.2402 0.42684-2.0091 1.0791-1.4321 0.30078-3.2402zm-31.807 0.55469c-0.16085-0.0012-0.25269 0.28339-0.08008 0.67578 0.20087 0.75341-0.1262 1.5326-0.75391 2.0098l-8.2109 4.8965c-0.77836 0.45204-1.2289 0.15128-1.7812-0.47656-0.40175-0.47715-0.57866-0.12613-0.45312 0.125l0.35156 0.65234c0.42684 0.7534 0.95543 1.8339 1.5078 2.7129l0.25 0.40234c0.17576 0.30136 0.60293 0.276 0.37695-0.37695-0.15065-0.50226-0.02505-1.2556 0.52734-1.582 3.8416-2.2853 3.9161-2.3104 7.0547-4.2441l1.332-0.7793c0.70303-0.3767 1.4562-0.1002 1.9082 0.37695 0.37663 0.32648 0.7268 0.20149 0.40039-0.30078l-2.1074-3.7422c-0.10357-0.24486-0.22576-0.34887-0.32226-0.34961zm64.965 0.86914c-0.16806-0.01393-0.33987-0.011-0.51562 0.0078-0.8788 0.30136-1.431 1.3049-1.0293 2.209 0.35152 0.67806 0.67616 1.2567 1.4043 1.6836 1.1048 0.70318 1.5836 0.70347 2.5879-0.15039 0.45195-0.3767 0.52619-1.08 0.25-1.7832-0.54925-1.0108-1.5208-1.8693-2.6973-1.9668zm0.25977 0.89453c0.39281 0.0363 0.72338 0.43079 1.0059 0.61914 0.42684 0.52738 0.70308 1.0558 0.35156 1.6836-0.3264 0.3767-0.77685 0.30048-1.2539-0.07617-0.55238-0.45204-1.0798-1.3563-0.87891-1.7832 0.28247-0.35787 0.5397-0.46514 0.77539-0.44336zm-47.805 0.11719c-0.0753 0.0502-0.12557 0.10016-0.17578 0.15039-1.1048 1.0045-2.3592 2.2605-3.3887 3.3906 0.22597 0.32647 0.32621 0.37776 0.67773 0.80469l1.2051-1.2324c0.3013 0.45204 0.47766 0.60435 0.40234 0.67969 0 0-0.07698 0.52676-0.15234 0.82813-0.10043 0.42693-0.19922 1.1055-0.19922 1.1055 0.10043 0.22602 0.5511 0.42548 0.92774 0.75195 0.12554-0.60272 0.32758-1.606 0.45312-2.5352 0 0 0.02402-0.000293 0.07422-0.02539 0.15065-0.0251 0.42776-0.05131 0.60352-0.10156 0.55238-0.25114 1.0285-0.45026 1.1289-1.4297v-0.02539-0.30273c-0.0753-0.85385-0.8285-1.3052-1.5566-2.0586zm0.10156 1.4062c0.80347 0.57761 0.35154 0.97961 0.17578 1.2559-0.17576 0.15068-0.32758 0.20089-0.45312 0.17578-0.12555 0-0.22463-0.02568-0.40039-0.05078s-0.32812-0.35156-0.32812-0.35156c0.25109-0.27625 0.50254-0.52594 0.72852-0.75195 0.10043-0.10045 0.17691-0.202 0.27734-0.27734zm44.551 0.51953c-0.73049-0.0048-1.0206 0.49457-1.9434 1.2637l2.7383 3.7168c1.1299-0.82874 1.8331-1.2064 1.7578-2.2109-0.2762-1.2557-0.98062-2.1838-2.2109-2.7363-0.12554-0.02197-0.23744-0.03252-0.3418-0.0332zm-42.016 0.83594-2.1602 2.9395c-0.55239 1.0045-0.376 1.4813 0.57812 2.084 0.77836 0.47715 1.5561 0.35077 2.0332-0.25195 0.77836-0.97942 1.2557-1.6564 2.1094-2.9121l-0.9043-0.55274c-0.62771 1.0296-1.2546 1.7577-2.0078 2.6367-0.35152 0.45204-0.95336 0.04996-0.62695-0.55273 0.67793-0.9292 1.1045-1.5306 1.8828-2.7109-0.27619-0.25114-0.47746-0.40345-0.9043-0.67969zm58.047 0.11133c-0.10886-0.02384-0.24408 0.04247-0.34765 0.24023-0.97923 1.6324-2.034 2.9641-3.666 5.0234-0.8788 1.5319-1.0287 3.3143-0.62695 5.0723 0.55239 2.2853 1.8817 3.9193 4.041 4.9238 0.85369 0.37673 1.859 0.50108 2.8633 0.42578 1.0546-0.0753 2.0835-0.37636 2.9121-0.85352 2.3602-1.7077 3.9181-4.2942 5.3242-6.5293 0.25108-0.40181-0.2026-0.70259-0.5039-0.30078-0.35152 0.42693-0.82767 0.92889-1.6562 0.32617-2.4606-1.783-4.0675-3.0138-6.0762-4.6211-0.50216-0.3767-1.0299-0.80382-1.6074-1.2559-0.80347-0.62784-0.87775-1.3058-0.60156-1.7578 0.2354-0.361 0.12678-0.65363-0.0547-0.69336zm-16.086 0.09961c0.30748-0.02747 0.53891 0.16996 1.0254 0.59375 0.70303 1.0548 0.70167 1.5323 0.22461 2.1602-0.6026-0.72829-1.1536-1.582-1.957-2.4609 0.31072-0.17893 0.52254-0.27649 0.70703-0.29297zm-58.131 0.54297-9.1641 7.6855c-0.87879 0.65295-1.28 0.52627-2.0332-0.10156-0.2762-0.30136-0.60404 0.05103-0.30273 0.42774 0.72814 0.92919 1.1564 1.5563 2.0352 2.7617 0.32642 0.42692 0.70308 0.20233 0.35156-0.40039-0.3013-0.52739-0.52865-1.4324 0.22461-2.0352l6.1523-5.1992 0.67774-0.57617c-0.9039 4.1688-1.2813 6.1276-1.9844 9.3672-0.55238 2.6369-0.87891 4.043-0.87891 4.043 0.40173 0.37668 1.0051 0.92938 1.457 1.4316 0.47704 0.40182 0.75414 0.20092 0.42773-0.35157-0.32641-0.60272-0.62853-1.4068 0.09961-2.1602l6.9043-6.002c0.95412-0.77852 1.2806-0.75367 2.4355-0.20117 0.37661 0.25113 0.52704-0.07448 0.32617-0.27539l-2.1328-2.0605-0.32617-0.30078c-0.22596-0.22602-0.50218-0.000587-0.17578 0.47656 0.20087 0.42693-0.05082 0.87916-0.40234 1.2559-2.2849 2.3606-3.4651 3.415-5.75 5.4492-0.35152 0.32647-0.67882 0.42775-0.60352-0.0996 0.97923-4.9473 1.6327-7.8107 2.6621-13.135zm55.023 0.39648c-0.12005 0.01177-0.24862 0.03613-0.38672 0.08008-0.70304 0.27625-1.282 1.0047-1.0059 1.7832 0.37663 1.6575 2.1854 0.67965 3.0391 1.207 0.27285 0.64506-0.38708 0.87156-1.1777 0.99805 0.04692 0.09538 0.13404 0.56077 0.17383 0.85938 0.55239-0.10046 1.0032-0.02592 1.6309-0.60352 0.50217-0.62784 0.60258-1.3794-0.17578-2.1328-0.47706-0.45204-1.1031-0.30186-1.9316-0.22656-0.45195-0.05023-0.7285-0.25052-0.55274-0.65234 0.27619-0.55249 0.82874-0.35156 1.2305-0.35156-0.0502-0.25114-0.02676-0.90567 0.02344-0.85547-0.22598-0.05648-0.50704-0.14078-0.86719-0.10547zm0.46875 4.0684c-0.01227-0.02494-0.02214-0.03066-0.02734 0.0059 0.0097-0.0015 0.01768-0.0043 0.02734-0.0059zm-11.482-4.0371c-0.30758-0.01883-0.61023 0.08815-0.77344 0.37695-0.22598 0.42693-0.40086 1.2299 0.25195 1.5312 0.40174 0.10045 1.0288 0.15126 1.3301-0.30078 0.27619-0.30136 0.27619-0.92911 0-1.2305-0.18832-0.21346-0.50102-0.35812-0.80859-0.37695zm-24.65 1.0039c-0.25108 0.3767-0.32619 0.5276-0.50195 0.9043 0.45195 0.30136 0.80274 0.70312 0.80274 0.70312l-1.959 3.2148 1.0039 0.45117c0.40174-0.80362 0.77962-1.3565 1.1562-1.9844 0.37663-0.52738 0.47632-0.62748 0.80273-1.2051 0 0 0.27602 0.15121 0.85352 0.40234 0.22597-0.3767 0.30248-0.52732 0.45312-0.87891-0.70304-0.45204-1.8832-1.1303-2.6113-1.6074zm33.545 0.37695s-0.60244 0.30049-0.85352 0.45117c0.85369 1.7077 1.4052 2.8883 2.1836 4.4453l0.85352-0.57617c-0.70304-1.4315-1.2044-2.6628-2.1836-4.3203zm-1.2051 0.65234-1.0547 0.47852c0.27619 1.1301 0.32535 1.7061 0.42578 2.5098-0.75325-0.77851-0.9535-0.97846-1.6816-1.8574-0.22598 0.05022-0.52736 0.22572-0.70312 0.32617l0.27539 2.7617-0.20117 0.02539c-0.60261-0.70317-1.0277-1.481-1.5801-2.2344-0.35151 0.07534-0.90517 0.17632-1.1562 0.40234 1.0546 1.6826 2.0587 2.9368 3.1133 4.293 0.40174-0.15068 1.1055-0.45117 1.1055-0.45117-0.05021-0.90408-0.32559-2.0337-0.27539-2.4355 0.35152 0.35158 0.6775 0.70171 1.0039 0.92773 0.3013 0.32647 0.67804 0.65374 0.87891 0.7793 0 0 0.40072-0.22543 0.77734-0.47656l-0.92774-5.0488zm21.793 0.20117c1.0546 0.77852 2.0342 1.5574 2.9883 2.3359 2.0087 1.5822 3.8912 3.1388 6.0254 4.7461-0.60261 1.5821-1.9824 3.1643-3.7148 3.541-0.77836 0.27625-1.5573 0.35098-2.3105 0.30078-1.7074-0.17579-3.2892-1.1045-4.5195-2.4356-1.4563-1.7077-1.9586-4.2432-1.0547-6.2773 0.50217-0.87897 1.3305-2.1858 2.5859-2.2109zm-50.795 0.65234-2.1328 4.4453 0.95312 0.52734c0.45195-0.52738 0.60384-1.0546 0.98047-1.7578 0.52727 0.25113 1.0547 0.52734 1.0547 0.52734-0.22598 0.67806-0.35328 1.0795-0.67969 1.7324l1.0547 0.45312c0.80347-1.8835 1.2054-2.8626 1.7578-4.5703l-0.95312-0.37695c-0.25109 0.55249-0.40296 1.255-0.80469 1.707l-0.95312-0.42578c0.25108-0.67806 0.55304-1.2561 0.75391-1.8086l-1.0312-0.45312zm45.457 3.4473c-0.04315-0.01256-0.09082 0.000973-0.13476 0.04492l-0.27734 0.22461-0.04883 0.05078c-0.77836 0.80363-0.97919 1.0301-1.9082 1.8086-0.35152 0.3014-0.07641 0.57785 0.25 0.37695 0.27619-0.22602 0.77848-0.32649 0.87891 0.17578 0.37663 1.1552 0.60354 1.8822 0.7793 2.5352 0.17576 0.65295 0.3248 1.2064 0.55078 2.0352l-0.55078 0.37695-2.3105 1.5059c-1.1801-0.72829-2.2348-1.455-3.4902-2.334-0.45195-0.32647-0.27707-0.87918-0.07617-1.0801 0.3013-0.25114 0.07695-0.60325-0.19922-0.40234-1.5818 1.0045-2.3615 1.5572-3.416 2.1348l-0.40234 0.22656c-0.37663 0.20091-0.17404 0.57759 0.32812 0.35157 0.70304-0.32647 1.6823-0.3781 2.084-0.12696l7.4824 5.123 3.6641 2.5117-3.5645-12.783c-0.05024-0.20091-0.07451-0.37694-0.09961-0.55274 0-0.1758-0.0251-0.35154 0-0.52734 0.05022-0.35158 0.17469-0.7031 0.42578-1.0547 0.24481-0.32019 0.16462-0.58343 0.03516-0.62109zm-60.371 3.0547c-0.89253-0.0064-1.7847 0.23501-2.334 0.95704l-5.3242 6.9062c-0.65282 0.77851-1.5059 0.77959-2.0332 0.45312-0.55239-0.35159-0.70336 0.1007-0.37695 0.37695 0.47706 0.40182 1.3818 1.1797 1.9844 1.707l0.55274 0.42578c0.35151 0.32647 0.65229 0.0514 0.30078-0.42578-0.3766-0.57761-0.52813-1.4073-0.07617-2.0352l4.8457-6.3789c0.9039-1.2054 1.5573-1.4805 2.6621-1.4805 1.2303-0.0753 2.2353 0.65173 3.0137 1.4805 0.77837 0.80363 0.70167 2.6632 0.22461 3.4668l-5.1465 7.6094c-0.37663 0.50227-1.0051 0.42747-1.457 0.22657-0.57749-0.1758-0.77812 0.20003-0.32617 0.45117l0.40234 0.30078 2.6113 1.6074c0.42685 0.25114 0.75412-0.0748 0.25195-0.47656-0.42681-0.50227-0.50302-1.0304-0.07617-1.6582 1.632-2.3607 2.9634-4.1678 4.7461-6.8047 0.90391-1.5068 0.8534-2.5864-0.02539-4.2188-0.45195-0.92919-1.583-1.885-2.8887-2.2617-0.46137-0.13185-0.99574-0.22469-1.5312-0.22852zm60.613 4.9512c0.42684 1.4566 0.77767 2.737 1.1543 4.3945-0.5775-0.42693-1.2046-0.87832-1.8574-1.3555-0.65282-0.47716-1.307-0.95588-1.8594-1.3828 0.75325-0.42692 1.2568-0.75249 1.8594-1.1543 0.22598-0.15068 0.45204-0.32616 0.70312-0.50195zm-17.1 2.5352c-0.37663 0.15068-0.77767 0.27706-1.1543 0.42774-1.2805 0.50226-2.5127 1.1559-3.4668 2.1855-1.632 1.7328-1.9327 4.1427-1.8574 6.4531 0.32641 2.3104 1.7824 4.8462 4.1426 5.5996 0.37663 0.1005 0.7799 0.17578 1.1816 0.17578 0.87879 0.0502 1.7813-0.10014 2.4844-0.50195 1.4061-0.70318 2.0335-1.933 2.4102-3.2891 0.07534-0.35159 0.10156-0.70282 0.10156-1.0293v-0.15039c-0.02511-1.3059-0.52689-2.4874-1.3555-3.4668-0.95412-0.9292-2.2848-1.5059-3.6406-1.5059-0.65282 0-1.2822 0.1007-1.8848 0.37695-0.72815 0.32647-1.3544 0.65119-1.957 1.2539 0.10043-0.92919 0.22491-1.4054 0.42578-2.0332 0.5775-1.783 1.8091-2.9877 3.416-3.6406 0.42684-0.17579 0.87812-0.32728 1.3301-0.42773l-0.17578-0.42774zm-26.294 0.78c-0.62771 0.37668-1.3807 0.37637-2.2344 0.32617l-0.17578 0.42774c0.45197 0.17579 0.6526 0.3253 0.50195 0.77734l-2.3105 8.7402-0.27539 1.0293c-0.17576 0.6781-0.85332 0.80411-1.5312 0.75391-0.50216-0.0251-0.47737 0.35071-0.20117 0.45117 1.1048 0.32647 2.234 0.65287 3.7656 1.0547 0.50217 0.10045 0.55351-0.30077 0.10156-0.47657-0.52728-0.22602-0.92967-0.40228-0.75391-1.2812l3.113-11.81zm5.1973 1.1055c-0.12554 0-0.25141 0.00027-0.37695 0.0254-1.8329 0.30136-2.7618 0.75242-3.6406 2.0332-0.9039 1.4064-1.104 3.5668-0.27539 5.1992 0.8788 1.6324 2.2341 2.6364 4.293 2.6113h0.57812c1.2554-0.15068 1.9336-0.47656 1.9336-0.47656-0.42685 1.3561-1.3818 2.4609-2.5117 3.1641-0.65282 0.40182-1.3556 0.67665-2.0586 0.75195-0.97923 0.0502-1.983-0.0753-2.5605-0.17578-0.3013-0.0753-0.55302 0.0508-0.57812 0.22656v0.0508c0.02511 0.10044 0.15182 0.22548 0.45312 0.30078 1.2303 0.25112 1.9334 0.25166 2.9629 0.22656 0.65281-0.0753 1.254-0.22711 1.7812-0.45313 1.5316-0.60272 2.6611-1.7069 3.6152-3.1133 1.2303-2.3355 1.9345-5.7764 0.62891-7.9863-0.77836-1.5821-2.6874-2.4099-4.2441-2.3848zm12.404 0.15039c-2.4606 0.42696-4.2176 0.45146-6.2012 0.47656 0 1.783-0.10074 3.542-0.20117 5.2246l0.65234 0.0234c0.55238-0.50227 1.23-0.80189 1.8828-0.90234 1.0797 0.0502 2.0338 0.37493 2.7871 1.2539 1.155 1.5319 0.85455 3.5671 0.25195 5.2246-0.97923 1.557-2.186 2.8119-5.7012 2.9375-0.50217 0.0502-0.55239 0.47795 0 0.42773l1.8848-0.0762c3.1888-0.42692 4.5933-2.2596 5.4219-4.3691 0.35152-1.5821 0.70296-3.6656-0.70312-4.8711-0.92901-0.77852-1.8325-1.3563-3.2637-1.2559-0.72815 0.0753-1.2305 0.29992-1.7578 0.57617-0.40174 0.20093-0.70312 0.20224-0.70312-0.0488 0.12554-2.2602-0.04871-2.8644 0.83008-2.9648 3.3645-0.22602 4.1678-0.22438 4.6699 0.32812l0.15039-1.9844zm-12.404 0.32617c0.30131 0 0.62867 0.0497 0.95508 0.125 0.97923 0.32648 1.4066 0.75354 1.959 1.959 0.80347 1.8584 0.65162 4.2195-0.62891 5.7012-0.70303 0.60272-1.4315 0.97935-2.2852 0.8789-0.15065-0.0252-0.30052-0.0494-0.45117-0.0996-1.6069-0.60272-2.4364-1.809-2.8633-3.4414-0.25108-1.557 0.07518-3.0395 1.0293-4.1445 0.70303-0.62784 1.4566-0.97852 2.2852-0.97852zm19.176 3.2871c0.25422-0.0192 0.51063-0.0103 0.76172 0.0273 0.6026 0.0753 1.1786 0.3267 1.6055 0.72852 1.3558 1.4566 2.3616 3.2909 2.0352 5.4004-0.27619 0.97942-0.75486 1.7564-1.709 2.1582-0.5775 0.27621-1.3039 0.30163-1.9316 0.20118-0.32641-0.0502-0.65293-0.14982-0.87891-0.2754-1.632-1.105-2.863-3.1647-2.8379-5.5254 0.12554-0.80363 0.35163-1.1049 0.87891-1.7578 0.56494-0.58388 1.3135-0.89935 2.0762-0.95703z" fill-rule="evenodd" transform="translate(322.45 685.97)" fill="#006747"/>
  </g>
 </g>
</svg>
